#N canvas 257 94 865 329 12;
#X declare -path ./bop;
#X obj 332 148 dac~;
#X msg 19 183 \; pd dsp 1;
#X obj 19 152 loadbang;
#N canvas 64 425 913 437 OSC-IO 0;
#X obj 38 104 netreceive -u -b 6660;
#X obj 38 136 oscparse;
#X obj 38 160 list trim;
#X obj 652 322 netsend -u -b;
#X obj 672 270 loadbang;
#X msg 672 296 connect 255.255.255.255 5550;
#X obj 38 286 outlet;
#X obj 652 105 inlet;
#X obj 38 208 route all;
#X obj 652 184 list trim;
#X obj 652 210 oscformat rpt;
#X obj 318 133 oscparse;
#X obj 318 157 list trim;
#X obj 350 277 s ID;
#X obj 318 109 netreceive -u -b 6661;
#X text 651 70 report (broadcast to 5550);
#X text 40 71 command (listen on 6660);
#X text 259 18 ----------- OSC INPUT/OUTPUT -------------;
#X text 320 76 admin (listen on 6661);
#X obj 318 335 s osc-out;
#X text 376 302 announce;
#X obj 318 181 route id pos, f 24;
#X obj 400 216 s POS;
#N canvas 63 100 195 328 route-by-id 0;
#X obj 37 37 inlet;
#X obj 38 259 outlet;
#X obj 70 195 r ID;
#X obj 37 67 list split 1, f 15;
#X obj 38 153 list append;
#X obj 38 224 route;
#X msg 37 99 symbol \$1;
#X obj 37 123 f;
#X connect 0 0 3 0;
#X connect 2 0 5 1;
#X connect 3 0 6 0;
#X connect 3 1 4 1;
#X connect 4 0 5 0;
#X connect 5 0 1 0;
#X connect 6 0 7 0;
#X connect 7 0 4 0;
#X restore 98 240 pd route-by-id;
#X obj 318 250 t b f;
#X msg 318 304 aloha 1;
#X obj 483 336 s osc-out;
#X obj 483 251 list prepend admin;
#X obj 483 275 list trim;
#X text 488 217 fwd all other messages, f 14;
#X connect 0 0 1 0;
#X connect 1 0 2 0;
#X connect 2 0 8 0;
#X connect 4 0 5 0;
#X connect 5 0 3 0;
#X connect 7 0 9 0;
#X connect 8 0 6 0;
#X connect 8 1 23 0;
#X connect 9 0 10 0;
#X connect 10 0 3 0;
#X connect 11 0 12 0;
#X connect 12 0 21 0;
#X connect 14 0 11 0;
#X connect 21 0 24 0;
#X connect 21 1 22 0;
#X connect 21 2 27 0;
#X connect 23 0 6 0;
#X connect 24 0 25 0;
#X connect 24 1 13 0;
#X connect 25 0 19 0;
#X connect 27 0 28 0;
#X connect 28 0 26 0;
#X restore 199 101 pd OSC-IO;
#X obj 199 130 s osc-in, f 9;
#X obj 199 72 r osc-out;
#X text 187 16 --- OSC ---;
#N canvas 606 294 482 182 variables 0;
#X obj 21 22 r RANDOM;
#X obj 21 51 print RANDOM;
#X obj 119 22 r ID;
#X obj 119 51 print ID;
#X obj 212 20 r POS;
#X obj 212 53 print POS;
#X connect 0 0 1 0;
#X connect 2 0 3 0;
#X connect 4 0 5 0;
#X restore 19 80 pd variables;
#X obj 19 226 declare -path ./bop, f 12;
#X obj 332 70 r osc-in;
#X obj 392 148 s osc-out;
#X text 328 16 --- AUDIO / LIGHT / MOTION / SENSING ---;
#N canvas 63 100 450 300 ID 0;
#X obj 105 64 r ID;
#X msg 105 88 set \$1;
#X obj 105 137 s ID;
#X floatatom 105 112 5 0 0 1 ID - - 0;
#X connect 0 0 1 0;
#X connect 1 0 3 0;
#X connect 3 0 2 0;
#X coords 0 -1 1 1 70 40 2 100 100;
#X restore 19 20 pd ID;
#N canvas 701 206 175 250 heartbeat 0;
#X obj 21 13 loadbang;
#X msg 21 67 1;
#X obj 21 158 s osc-out;
#X obj 21 94 metro 10000;
#X msg 21 124 hb;
#X obj 21 41 delay 10000;
#X connect 0 0 5 0;
#X connect 1 0 3 0;
#X connect 3 0 4 0;
#X connect 4 0 2 0;
#X connect 5 0 1 0;
#X restore 19 105 pd heartbeat;
#X obj 529 68 loadbang;
#X msg 529 102 1;
#X obj 689 65 r osc-in;
#X obj 689 99 route speed clicks;
#X obj 529 187 bng 19 250 50 0 empty empty empty 0 -10 0 12 #fcfcfc #000000 #000000;
#X obj 529 144 metro 500;
#X obj 529 233 s click;
#X floatatom 688 128 5 0 0 0 - - - 0;
#X msg 563 103 0;
#X obj 332 109 vane.voice;
#X connect 2 0 1 0;
#X connect 3 0 4 0;
#X connect 5 0 3 0;
#X connect 9 0 23 0;
#X connect 14 0 15 0;
#X connect 15 0 19 0;
#X connect 16 0 17 0;
#X connect 17 0 21 0;
#X connect 18 0 20 0;
#X connect 19 0 18 0;
#X connect 21 0 19 1;
#X connect 22 0 19 0;
#X connect 23 0 0 0;
#X connect 23 0 0 1;
#X connect 23 1 10 0;
