#N canvas 0 37 735 891 12;
#X declare -path ./bop;
#X obj 97 40 declare -path ./bop;
#X text 1201 1867 hi there! you are great! :);
#X obj 912 733 outlet~;
#X obj 1247 743 outlet;
#X obj 911 461 hip~ 0, f 16;
#X obj 38 173 s \$0-midi;
#X obj 217 180 s \$0-in;
#X text 791 462 hi pass filter;
#X obj 38 77 route list bang, f 26;
#X text 225 153 < messages;
#X text 48 113 < Lists starting with numbers, f 12;
#X obj 911 21 r \$0-midi;
#X obj 38 40 inlet;
#N canvas 18 168 680 616 gain 0;
#X obj 126 51 inlet~;
#X obj 133 388 outlet~;
#X msg 152 157 \$1 10;
#X obj 133 306 *~;
#X obj 151 92 loadbang;
#X msg 151 116 1;
#X obj 151 184 line~;
#X obj 232 76 inlet;
#X obj 233 267 outlet;
#X obj 468 152 route d;
#X text 465 93 sensor;
#X obj 468 124 r ard-in;
#X obj 340 93 route float;
#X obj 341 182 route sensor;
#X obj 423 241 *;
#X msg 424 278 \$1 10;
#X obj 424 308 line~;
#X obj 256 327 +~;
#X obj 424 335 pow~ 4;
#X obj 133 349 clip~ -1 1;
#X connect 0 0 3 0;
#X connect 2 0 6 0;
#X connect 3 0 19 0;
#X connect 4 0 5 0;
#X connect 5 0 2 0;
#X connect 6 0 17 0;
#X connect 7 0 8 0;
#X connect 7 0 12 0;
#X connect 9 0 14 0;
#X connect 11 0 9 0;
#X connect 12 0 2 0;
#X connect 12 1 13 0;
#X connect 13 0 14 1;
#X connect 14 0 15 0;
#X connect 15 0 16 0;
#X connect 16 0 18 0;
#X connect 17 0 3 1;
#X connect 18 0 17 1;
#X connect 19 0 1 0;
#X restore 911 612 pd gain;
#X text 855 614 gain;
#N canvas 0 244 806 488 noise 0;
#X obj 126 32 inlet~;
#X obj 133 458 outlet~;
#X msg 256 157 \$1 10;
#X obj 193 376 *~;
#X obj 255 79 loadbang;
#X obj 256 184 line~;
#X obj 323 52 inlet;
#X msg 255 103 0;
#X obj 323 266 outlet;
#X obj 468 152 route d;
#X text 465 93 sensor;
#X obj 468 124 r ard-in;
#X obj 340 93 route float;
#X obj 341 182 route sensor;
#X obj 423 241 *;
#X msg 427 306 \$1 10;
#X obj 427 336 line~;
#X obj 256 327 +~;
#X obj 163 122 noise~;
#X obj 148 270 lop~ 4000;
#X obj 164 160 pow~ 16;
#X obj 147 70 noise~;
#X obj 148 224 *~;
#X obj 147 94 pow~ 2;
#X obj 427 363 pow~ 0.5;
#X obj 423 280 expr if($f1<0.45 \, 0 \, $f1*3);
#X connect 0 0 1 0;
#X connect 2 0 5 0;
#X connect 3 0 1 0;
#X connect 4 0 7 0;
#X connect 5 0 17 0;
#X connect 6 0 8 0;
#X connect 6 0 12 0;
#X connect 7 0 2 0;
#X connect 9 0 14 0;
#X connect 11 0 9 0;
#X connect 12 0 2 0;
#X connect 12 1 13 0;
#X connect 13 0 14 1;
#X connect 14 0 25 0;
#X connect 15 0 16 0;
#X connect 16 0 24 0;
#X connect 17 0 3 1;
#X connect 18 0 20 0;
#X connect 19 0 3 0;
#X connect 20 0 22 1;
#X connect 21 0 23 0;
#X connect 22 0 19 0;
#X connect 23 0 22 0;
#X connect 24 0 17 1;
#X connect 25 0 15 0;
#X restore 911 316 pd noise;
#X text 831 316 noise;
#X obj 1328 595 route report;
#X obj 1328 563 r \$0-in;
#X obj 1247 659 list prepend;
#X obj 1247 683 route 1;
#X text 1352 658 gate reporting;
#X obj 1247 566 r \$0-rpt;
#X obj 1027 176 s \$0-rpt;
#X obj 1027 141 list prepend casio;
#X obj 1328 628 tgl 19 0 empty empty empty 0 -10 0 12 #fcfcfc #000000 #000000 0 1;
#X obj 911 112 bop.module/casio~;
#X text 839 118 casio;
#X obj 957 676 s \$0-rpt;
#X obj 957 641 list prepend gain;
#X obj 1043 491 s \$0-rpt;
#X obj 1043 456 list prepend hp;
#X obj 964 376 s \$0-rpt;
#X obj 964 351 list prepend noise;
#X obj 960 274 channel.in \$0 noise;
#X obj 937 52 channel.in \$0 casio;
#X obj 1043 424 channel.in \$0 hp;
#X obj 957 583 channel.in \$0 gain;
#X obj 40 453 bop.module/sequence;
#A saved casio stop \; casio gain 0.7 \; casio release 0.4 \; casio sustain 0 \; casio decay 2 \; casio attack 0.01 \; casio wave-2 2 \; casio wave-1 4 \; casio filter loop 0.1 5000 0.4 5000 0.1 5000 0.6 7000 \;;
#X msg 72 395 read ../seq/load;
#X msg 83 423 open;
#X obj 39 297 loadbang;
#X obj 40 358 t b b;
#X msg 40 394 go;
#X obj 171 488 s \$0-in;
#X obj 38 331 bng 19 250 50 0 empty empty empty 0 -10 0 12 #fcfcfc #000000 #000000;
#X obj 593 242 bop.p/bop.p.steps2tones;
#X obj 454 383 list, f 20;
#X obj 454 418 bop.p/bop.p.nth, f 24;
#X floatatom 456 144 5 0 0 0 - - - 0;
#X obj 472 281 list length;
#X obj 454 314 %;
#X text 496 142 choose voice;
#X obj 456 112 bop.p/bop.p.counter;
#X obj 456 84 r click;
#X obj 455 706 pack, f 15;
#X obj 594 185 loadbang;
#X obj 454 750 s \$0-midi;
#X msg 594 211 0.72523;
#X obj 454 470 + 50;
#X obj 456 621 + 0;
#X msg 357 724 stop;
#X obj 483 536 bop.p/bop.p.shuffle 100;
#X floatatom 483 584 5 0 0 0 - - - 0;
#X obj 454 498 t f b;
#X text 515 502 detune a little;
#X obj 483 560 expr $f1 / 3000 * -1;
#X msg 661 211 5.42127;
#X obj 454 348 t b f, f 24;
#X obj 455 661 makenote 100 1200;
#X connect 4 0 13 0;
#X connect 8 0 5 0;
#X connect 8 2 6 0;
#X connect 11 0 26 0;
#X connect 12 0 8 0;
#X connect 13 0 2 0;
#X connect 13 1 29 0;
#X connect 15 0 4 0;
#X connect 15 1 33 0;
#X connect 17 0 25 0;
#X connect 18 0 17 0;
#X connect 19 0 20 0;
#X connect 20 0 3 0;
#X connect 22 0 19 0;
#X connect 24 0 23 0;
#X connect 25 0 19 1;
#X connect 26 0 15 0;
#X connect 26 1 24 0;
#X connect 29 0 28 0;
#X connect 31 0 30 0;
#X connect 33 0 32 0;
#X connect 34 0 15 1;
#X connect 35 0 26 0;
#X connect 36 0 4 1;
#X connect 36 0 31 0;
#X connect 37 0 13 1;
#X connect 38 1 44 0;
#X connect 39 0 38 0;
#X connect 40 0 38 0;
#X connect 41 0 45 0;
#X connect 42 0 43 0;
#X connect 42 1 39 0;
#X connect 43 0 38 0;
#X connect 45 0 42 0;
#X connect 46 0 50 0;
#X connect 46 0 47 1;
#X connect 47 0 48 0;
#X connect 48 0 59 0;
#X connect 49 0 51 0;
#X connect 50 0 51 1;
#X connect 51 0 68 0;
#X connect 53 0 49 0;
#X connect 54 0 53 0;
#X connect 55 0 57 0;
#X connect 56 0 58 0;
#X connect 58 0 46 0;
#X connect 59 0 64 0;
#X connect 60 0 69 0;
#X connect 61 0 57 0;
#X connect 62 0 66 0;
#X connect 63 0 60 1;
#X connect 64 0 60 0;
#X connect 64 1 62 0;
#X connect 66 0 63 0;
#X connect 67 0 46 0;
#X connect 68 0 47 0;
#X connect 68 1 48 1;
#X connect 69 0 55 0;
#X connect 69 1 55 1;
