#N canvas 207 37 870 891 12;
#X declare -path ./bop;
#X obj 97 40 declare -path ./bop;
#X text 1201 1867 hi there! you are great! :);
#X obj 912 923 outlet~;
#X obj 1247 743 outlet;
#X obj 38 173 s \$0-midi;
#X obj 217 180 s \$0-in;
#X obj 38 77 route list bang, f 26;
#X text 225 153 < messages;
#X text 48 113 < Lists starting with numbers, f 12;
#X obj 911 21 r \$0-midi;
#X obj 38 40 inlet;
#N canvas 18 168 680 616 gain 0;
#X obj 126 51 inlet~;
#X obj 133 388 outlet~;
#X msg 152 157 \$1 10;
#X obj 133 306 *~;
#X obj 151 92 loadbang;
#X msg 151 116 1;
#X obj 151 184 line~;
#X obj 232 76 inlet;
#X obj 233 267 outlet;
#X obj 468 152 route d;
#X text 465 93 sensor;
#X obj 468 124 r ard-in;
#X obj 340 93 route float;
#X obj 341 182 route sensor;
#X obj 423 241 *;
#X msg 424 278 \$1 10;
#X obj 424 308 line~;
#X obj 256 327 +~;
#X obj 424 335 pow~ 4;
#X obj 133 349 clip~ -1 1;
#X connect 0 0 3 0;
#X connect 2 0 6 0;
#X connect 3 0 19 0;
#X connect 4 0 5 0;
#X connect 5 0 2 0;
#X connect 6 0 17 0;
#X connect 7 0 8 0;
#X connect 7 0 12 0;
#X connect 9 0 14 0;
#X connect 11 0 9 0;
#X connect 12 0 2 0;
#X connect 12 1 13 0;
#X connect 13 0 14 1;
#X connect 14 0 15 0;
#X connect 15 0 16 0;
#X connect 16 0 18 0;
#X connect 17 0 3 1;
#X connect 18 0 17 1;
#X connect 19 0 1 0;
#X restore 911 802 pd gain;
#X text 855 804 gain;
#N canvas 0 244 806 488 noise 0;
#X obj 126 32 inlet~;
#X obj 133 458 outlet~;
#X msg 256 157 \$1 10;
#X obj 193 376 *~;
#X obj 255 79 loadbang;
#X obj 256 184 line~;
#X obj 323 52 inlet;
#X msg 255 103 0;
#X obj 323 266 outlet;
#X obj 468 152 route d;
#X text 465 93 sensor;
#X obj 468 124 r ard-in;
#X obj 340 93 route float;
#X obj 341 182 route sensor;
#X obj 423 241 *;
#X msg 427 306 \$1 10;
#X obj 427 336 line~;
#X obj 256 327 +~;
#X obj 163 122 noise~;
#X obj 148 270 lop~ 4000;
#X obj 164 160 pow~ 16;
#X obj 147 70 noise~;
#X obj 148 224 *~;
#X obj 147 94 pow~ 2;
#X obj 427 363 pow~ 0.5;
#X obj 423 280 expr if($f1<0.45 \, 0 \, $f1*3);
#X connect 0 0 1 0;
#X connect 2 0 5 0;
#X connect 3 0 1 0;
#X connect 4 0 7 0;
#X connect 5 0 17 0;
#X connect 6 0 8 0;
#X connect 6 0 12 0;
#X connect 7 0 2 0;
#X connect 9 0 14 0;
#X connect 11 0 9 0;
#X connect 12 0 2 0;
#X connect 12 1 13 0;
#X connect 13 0 14 1;
#X connect 14 0 25 0;
#X connect 15 0 16 0;
#X connect 16 0 24 0;
#X connect 17 0 3 1;
#X connect 18 0 20 0;
#X connect 19 0 3 0;
#X connect 20 0 22 1;
#X connect 21 0 23 0;
#X connect 22 0 19 0;
#X connect 23 0 22 0;
#X connect 24 0 17 1;
#X connect 25 0 15 0;
#X restore 911 316 pd noise;
#X text 831 316 noise;
#X obj 1328 595 route report;
#X obj 1328 563 r \$0-in;
#X obj 1247 659 list prepend;
#X obj 1247 683 route 1;
#X text 1352 658 gate reporting;
#X obj 1247 566 r \$0-rpt;
#X obj 1027 176 s \$0-rpt;
#X obj 1027 141 list prepend casio;
#X obj 1328 628 tgl 19 0 empty empty empty 0 -10 0 12 #fcfcfc #000000 #000000 0 1;
#X text 839 118 casio;
#X obj 957 866 s \$0-rpt;
#X obj 957 831 list prepend gain;
#X obj 964 376 s \$0-rpt;
#X obj 964 351 list prepend noise;
#X obj 960 274 channel.in \$0 noise;
#X obj 937 52 channel.in \$0 casio;
#X obj 957 773 channel.in \$0 gain;
#X msg 72 395 read ../seq/load;
#X msg 83 423 open;
#X obj 39 297 loadbang;
#X obj 40 358 t b b;
#X obj 171 488 s \$0-in;
#X obj 38 331 bng 19 250 50 0 empty empty empty 0 -10 0 12 #fcfcfc #000000 #000000;
#X obj 454 383 list, f 20;
#X floatatom 456 144 5 0 0 0 - - - 0;
#X obj 472 281 list length;
#X obj 454 314 %;
#X text 496 142 choose voice;
#X obj 456 84 r click;
#X obj 455 706 pack, f 15;
#X obj 594 185 loadbang;
#X obj 454 750 s \$0-midi;
#X obj 454 470 + 50;
#X obj 456 621 + 0;
#X msg 407 694 stop;
#X floatatom 483 584 10 0 0 0 - - - 0;
#X obj 454 498 t f b;
#X text 515 502 detune a little;
#X obj 454 348 t b f, f 24;
#X obj 455 661 makenote 100 1200;
#X msg 728 212 5.42125;
#X msg 798 211 5.42127;
#X msg 594 211 0.72343;
#X msg 531 209 0.72341;
#X msg 658 211 0.72345;
#X obj 483 560 expr $f1 / 2000 * -1;
#X msg 795 233 5.42123;
#X msg 40 394 go;
#X msg 949 500 dump;
#X msg 1011 485 delay-level 0.3 \, cutoff 6000 \, q 0.3 \, reverb-level 0.2 \, reverb-size 0.6 \, delay-time 0.4;
#X floatatom 1122 271 7 0 0 0 - - - 0;
#X msg 1126 243 0.005;
#X text 850 571 echo~;
#X obj 40 453 bop.sequence;
#A saved read ../seq/load;
#A saved loop 0;
#A saved internal-sequence ### initiate \; instrument 3 \; chord 7 \; volume 1 50 \; delay-time loop 0.8 300 0.84 10000 \; === \; ### swell up \; delay-level 0.1 0.01 0.1 2000 0.5 3000 \; strum 0 \; strum 0.2 3000 0.8 9000 \; root 46 \; octaves 8 \; octaves 4 5000 \; shuffle 1 \; velocity 0.05 \; velocity 0.5 2800 0.1 5000 \; - 9500 \; ### fall \; strum 0.75 \; strum 0.1 4000 \; root 53 \; octaves 3 \; shuffle 0 \; velocity 0.9 0.2 4000 \; feedback 0.2 400 \; delay-level 0.8 200 0.5 6000 0 6000 \; - 6000 \;;
#X obj 454 418 babs/babs.nth, f 24;
#X obj 593 242 babs/babs.steps2tones;
#X obj 456 112 babs/babs.counter;
#X obj 911 112 bop.casio~;
#A saved wave-1 0;
#A saved wave-2 0;
#A saved filter 0.66;
#A saved attack 0.1;
#A saved decay 0.3;
#A saved sustain 0.7;
#A saved release 0.2;
#A saved gain 1;
#X obj 912 566 bop.delay~;
#A saved time 0.333;
#A saved feedback 0.5;
#A saved cutoff 1000;
#A saved q 0.3;
#A saved wet 0.75;
#A saved dry 1;
#X obj 913 612 bop.reverb~;
#A saved size 0.5;
#A saved damp 0.5;
#A saved cutoff 3000;
#A saved wet 0.7;
#A saved dry 1;
#X obj 483 536 babs/babs.shuffle 100;
#X connect 6 0 4 0;
#X connect 6 2 5 0;
#X connect 9 0 72 0;
#X connect 10 0 6 0;
#X connect 11 0 2 0;
#X connect 11 1 26 0;
#X connect 13 0 73 0;
#X connect 13 1 28 0;
#X connect 15 0 23 0;
#X connect 16 0 15 0;
#X connect 17 0 18 0;
#X connect 18 0 3 0;
#X connect 20 0 17 0;
#X connect 22 0 21 0;
#X connect 23 0 17 1;
#X connect 26 0 25 0;
#X connect 28 0 27 0;
#X connect 29 0 13 1;
#X connect 30 0 72 0;
#X connect 31 0 11 1;
#X connect 32 0 68 0;
#X connect 33 0 68 0;
#X connect 34 0 37 0;
#X connect 35 0 62 0;
#X connect 35 1 32 0;
#X connect 37 0 35 0;
#X connect 38 0 69 0;
#X connect 39 0 41 0;
#X connect 40 0 41 1;
#X connect 41 0 53 0;
#X connect 43 0 71 0;
#X connect 44 0 46 0;
#X connect 45 0 57 0;
#X connect 47 0 51 0;
#X connect 48 0 54 0;
#X connect 49 0 46 0;
#X connect 50 0 48 1;
#X connect 51 0 48 0;
#X connect 51 1 75 0;
#X connect 53 0 38 0;
#X connect 53 1 69 1;
#X connect 54 0 44 0;
#X connect 54 1 44 1;
#X connect 55 0 70 0;
#X connect 56 0 70 0;
#X connect 57 0 70 0;
#X connect 58 0 70 0;
#X connect 59 0 70 0;
#X connect 60 0 50 0;
#X connect 61 0 70 0;
#X connect 62 0 68 0;
#X connect 63 0 73 0;
#X connect 64 0 73 0;
#X connect 65 0 13 1;
#X connect 66 0 65 0;
#X connect 68 1 36 0;
#X connect 69 0 47 0;
#X connect 70 0 40 0;
#X connect 70 0 38 1;
#X connect 71 0 39 0;
#X connect 72 0 13 0;
#X connect 72 1 22 0;
#X connect 73 0 74 0;
#X connect 73 1 74 1;
#X connect 74 0 11 0;
#X connect 75 0 60 0;
